<?xml version="1.0" encoding="UTF-8" standalone="no"?>
<svg
   width="500px"
   height="500px"
   viewBox="0 0 500 500"
   version="1.1"
   id="svg21"
   sodipodi:docname="icon.svg"
   inkscape:version="1.1.1 (3bf5ae0d25, 2021-09-20, custom)"
   xmlns:inkscape="http://www.inkscape.org/namespaces/inkscape"
   xmlns:sodipodi="http://sodipodi.sourceforge.net/DTD/sodipodi-0.dtd"
   xmlns="http://www.w3.org/2000/svg"
   xmlns:svg="http://www.w3.org/2000/svg">
  <sodipodi:namedview
     id="namedview18846"
     pagecolor="#ffffff"
     bordercolor="#666666"
     borderopacity="1.0"
     inkscape:pageshadow="2"
     inkscape:pageopacity="0.0"
     inkscape:pagecheckerboard="0"
     showgrid="false"
     inkscape:zoom="0.23921911"
     inkscape:cx="-37.622413"
     inkscape:cy="269.62729"
     inkscape:window-width="1440"
     inkscape:window-height="831"
     inkscape:window-x="0"
     inkscape:window-y="0"
     inkscape:window-maximized="1"
     inkscape:current-layer="svg21" />
  <defs
     id="defs7" />
  <path
     id="Rectangle-2"
     style="fill:#f55041;fill-rule:evenodd;stroke:none;stroke-width:1"
     d="M 0,-2e-6 V 500 H 500 V -2e-6 Z m 249.86133,153.322272 22.22656,31.80664 c -6.88222,-2.51108 -14.41433,-3.90625 -22.22656,-3.90625 -7.81225,0 -15.34434,1.39517 -22.22656,3.90625 z m 41.85156,43.15234 38.5957,3.34961 -16.46093,35.24805 c -1.30204,-7.34722 -3.81264,-14.50768 -7.71875,-21.29688 -3.90613,-6.69622 -8.83585,-12.55764 -14.41602,-17.30078 z m -83.70312,0.0937 c -5.58018,4.74315 -10.60169,10.51081 -14.50782,17.20703 -4.09212,6.8822 -6.41671,13.94966 -7.71875,21.29688 l -16.46289,-35.24805 z m 41.85156,3.25586 c 25.68203,0 46.50195,20.81796 46.50195,46.5 h 37.20117 c 5.1364,0 9.29883,4.16437 9.29883,9.30078 0,5.1364 -4.16243,9.30078 -9.29883,9.30078 h -51.98242 v 8.86524 l 14.22461,8.04492 16.57227,-4.41797 3.62695,13.73828 -12.58594,3.33398 3.33203,12.58594 -13.36328,3.63867 -4.41601,-16.57226 -14.22461,-8.04297 -17.78125,10.30664 v 16.08789 l 12.09961,12.1543 -10.03125,10.02929 -9.18164,-9.16796 -9.16797,9.16796 -10.09766,-10.02929 12.1543,-12.1543 V 296.4062 l -17.41992,-10.23633 -14.22461,8.04297 -4.4043,16.57227 -13.73828,-3.70899 3.34765,-12.51562 -12.58593,-3.33399 3.69531,-13.72656 16.57227,4.4043 14.2246,-8.04297 v -8.93555 H 166.1582 c -5.13641,0 -9.29882,-4.16438 -9.29882,-9.30078 0,-5.13641 4.16241,-9.29883 9.29882,-9.29883 h 37.20118 c -10e-6,-25.68204 20.81991,-46.50195 46.50195,-46.50195 z m 0,18.59961 c -15.40922,0 -27.90039,12.49311 -27.90039,27.90234 h 55.80273 c 0,-15.40923 -12.49313,-27.90234 -27.90234,-27.90234 z m -17.78711,46.50195 v 8.86524 l 17.7793,10.32226 17.78125,-10.32226 v -8.86524 z" />
</svg>
