<?xml version="1.0" encoding="UTF-8" standalone="no"?>
<svg
   width="500px"
   height="500px"
   viewBox="0 0 500 500"
   version="1.1"
   id="svg21"
   xmlns:xlink="http://www.w3.org/1999/xlink"
   xmlns="http://www.w3.org/2000/svg"
   xmlns:svg="http://www.w3.org/2000/svg"
   xmlns:rdf="http://www.w3.org/1999/02/22-rdf-syntax-ns#"
   xmlns:cc="http://creativecommons.org/ns#"
   xmlns:dc="http://purl.org/dc/elements/1.1/">
  <title
     id="title2">logo</title>
  <defs
     id="defs7">
    <path
       d="M44.2640373,343.222285 L44.2640373,209.580105 L9.30197656,209.580105 L9.30197656,209.580105 C4.14736058,209.580105 -0.0312812878,205.401463 -0.0312812878,200.246847 C-0.0312812878,197.790805 0.936815537,195.433748 2.6631066,193.686732 L190.658877,3.43404729 L190.658877,3.43404729 C195.187692,-1.149136 202.574425,-1.19321079 207.157609,3.33560349 C207.183949,3.3616316 207.210166,3.38778498 207.236257,3.41406273 L305.392802,102.271116 L305.392802,83.9737488 L305.392802,83.9737488 C305.392802,79.6782355 308.875004,76.196034 313.170517,76.196034 L345.823475,76.196034 L345.823475,76.196034 C350.118988,76.196034 353.60119,79.6782355 353.60119,83.9737488 L353.60119,151.111746 L395.362713,193.713273 L395.362713,193.713273 C398.971106,197.394247 398.912268,203.303446 395.231294,206.911839 C393.486613,208.622119 391.140869,209.580105 388.697721,209.580105 L353.60119,209.580105 L353.60119,343.222285 L353.60119,343.222285 C353.60119,347.517798 350.118988,351 345.823475,351 L52.0417522,351 L52.0417522,351 C47.7462388,351 44.2640373,347.517798 44.2640373,343.222285 Z"
       id="path-1-3" />
    <mask
       id="mask-2-7"
       fill="#ffffff">
      <use
         xlink:href="#path-1-3"
         id="use1461"
         x="0"
         y="0"
         width="100%"
         height="100%" />
    </mask>
    <filter
       style="color-interpolation-filters:sRGB"
       id="filter5868"
       x="-0.070571608"
       y="-0.080021367"
       width="1.1411432"
       height="1.1600427">
      <feGaussianBlur
         stdDeviation="11.703125"
         id="feGaussianBlur5870" />
    </filter>
  </defs>
  <g
     id="fill/orange"
     fill="#f55041"
     style="fill-rule:evenodd;stroke:none;stroke-width:1">
    <rect
       id="Rectangle-2"
       x="0"
       y="0"
       width="500"
       height="500" />
  </g>
  <g
     id="g5866"
     style="filter:url(#filter5868);fill:#000000;opacity:0.3">
    <g
       id="g5864"
       style="fill:#000000">
      <g
         id="g5862"
         style="fill:#000000">
        <g
           id="g5860"
           style="fill:#000000">
          <g
             id="g5858"
             mask="url(#mask-2-7)"
             fill-rule="evenodd"
             fill="#000000"
             style="fill:#000000;stroke:none;stroke-width:1"
             transform="translate(50.99922,74.500391)">
            <path
               id="path5856"
               style="fill:#000000"
               d="M 50.800781,70.099609 V 421.09961 H 448.80078 V 70.099609 Z M 250,187.08984 l 22.05273,31.57227 c -6.83049,-2.49204 -14.29912,-3.88086 -22.05273,-3.88086 -7.7536,0 -15.22224,1.38866 -22.05273,3.88086 z m 41.53711,42.82032 38.31641,3.34375 L 313.5,268.22656 c -1.29225,-7.29203 -3.79124,-14.38877 -7.66797,-21.12695 -3.87689,-6.64593 -8.75666,-12.4819 -14.29492,-17.18945 z m -83.07422,0.0918 c -5.53825,4.70756 -10.53733,10.45367 -14.41406,17.09961 -4.06143,6.83047 -6.34614,13.83494 -7.63867,21.12696 L 170.05664,233.25586 Z M 250,233.25586 c 25.48902,0 46.16406,20.64382 46.16406,46.13281 h 36.91211 c 5.09778,0 9.22071,4.15223 9.22071,9.25 0,5.09777 -4.12293,9.22071 -9.22071,9.22071 h -51.59375 v 8.80273 l 14.11328,7.96875 16.44336,-4.38672 3.60938,13.63672 -12.50196,3.3125 3.3125,12.50391 -13.25,3.60937 -4.38671,-16.44141 -14.11524,-7.99804 -17.66406,10.23633 v 15.96484 l 12.02539,12.05469 -9.9668,9.96679 -9.10156,-9.10156 -9.10156,9.10156 -10.02539,-9.96679 12.05468,-12.05469 v -15.96484 l -17.27734,-10.14649 -14.11523,7.9668 -4.38672,16.44336 -13.63672,-3.66992 3.3418,-12.41407 -12.50196,-3.3125 3.66992,-13.63672 16.44141,4.38672 14.11523,-7.99804 v -8.86328 h -51.65429 c -5.09777,0 -9.22071,-4.12294 -9.22071,-9.22071 0,-5.09777 4.12294,-9.25 9.22071,-9.25 h 36.91211 c 0,-25.48899 20.67493,-46.13281 46.16406,-46.13281 z m 0,18.44141 c -15.29345,0 -27.69141,12.39795 -27.69141,27.6914 h 55.38282 c 0,-15.29345 -12.39794,-27.6914 -27.69141,-27.6914 z m -17.66602,46.16211 v 8.80273 L 250,316.89844 267.63672,306.66211 v -8.80273 z"
               transform="translate(-50.8,-70.1)" />
          </g>
        </g>
      </g>
    </g>
  </g>
  <g
     id="g5854">
    <g
       id="g5847">
      <g
         id="g5841">
        <g
           id="g5836">
          <g
             id="fill/black"
             mask="url(#mask-2-7)"
             fill-rule="evenodd"
             fill="#000000"
             style="fill:#ffffff;stroke:none;stroke-width:1"
             transform="translate(50.99922,74.500391)">
            <path
               id="Rectangle-2-5"
               style="fill:#ffffff"
               d="M 50.800781,70.099609 V 421.09961 H 448.80078 V 70.099609 Z M 250,187.08984 l 22.05273,31.57227 c -6.83049,-2.49204 -14.29912,-3.88086 -22.05273,-3.88086 -7.7536,0 -15.22224,1.38866 -22.05273,3.88086 z m 41.53711,42.82032 38.31641,3.34375 L 313.5,268.22656 c -1.29225,-7.29203 -3.79124,-14.38877 -7.66797,-21.12695 -3.87689,-6.64593 -8.75666,-12.4819 -14.29492,-17.18945 z m -83.07422,0.0918 c -5.53825,4.70756 -10.53733,10.45367 -14.41406,17.09961 -4.06143,6.83047 -6.34614,13.83494 -7.63867,21.12696 L 170.05664,233.25586 Z M 250,233.25586 c 25.48902,0 46.16406,20.64382 46.16406,46.13281 h 36.91211 c 5.09778,0 9.22071,4.15223 9.22071,9.25 0,5.09777 -4.12293,9.22071 -9.22071,9.22071 h -51.59375 v 8.80273 l 14.11328,7.96875 16.44336,-4.38672 3.60938,13.63672 -12.50196,3.3125 3.3125,12.50391 -13.25,3.60937 -4.38671,-16.44141 -14.11524,-7.99804 -17.66406,10.23633 v 15.96484 l 12.02539,12.05469 -9.9668,9.96679 -9.10156,-9.10156 -9.10156,9.10156 -10.02539,-9.96679 12.05468,-12.05469 v -15.96484 l -17.27734,-10.14649 -14.11523,7.9668 -4.38672,16.44336 -13.63672,-3.66992 3.3418,-12.41407 -12.50196,-3.3125 3.66992,-13.63672 16.44141,4.38672 14.11523,-7.99804 v -8.86328 h -51.65429 c -5.09777,0 -9.22071,-4.12294 -9.22071,-9.22071 0,-5.09777 4.12294,-9.25 9.22071,-9.25 h 36.91211 c 0,-25.48899 20.67493,-46.13281 46.16406,-46.13281 z m 0,18.44141 c -15.29345,0 -27.69141,12.39795 -27.69141,27.6914 h 55.38282 c 0,-15.29345 -12.39794,-27.6914 -27.69141,-27.6914 z m -17.66602,46.16211 v 8.80273 L 250,316.89844 267.63672,306.66211 v -8.80273 z"
               transform="translate(-50.8,-70.1)" />
          </g>
        </g>
      </g>
    </g>
  </g>
  <metadata
     id="metadata926">
    <rdf:RDF>
      <cc:Work
         rdf:about="">
        <dc:title>logo</dc:title>
      </cc:Work>
    </rdf:RDF>
  </metadata>
</svg>
