<?xml version="1.0" encoding="UTF-8" standalone="no"?>
<svg
   width="1500"
   height="500"
   viewBox="0 0 1500 500"
   version="1.1"
   id="svg21"
   sodipodi:docname="logo.svg"
   inkscape:version="1.1.1 (3bf5ae0d25, 2021-09-20, custom)"
   xmlns:inkscape="http://www.inkscape.org/namespaces/inkscape"
   xmlns:sodipodi="http://sodipodi.sourceforge.net/DTD/sodipodi-0.dtd"
   xmlns:xlink="http://www.w3.org/1999/xlink"
   xmlns="http://www.w3.org/2000/svg"
   xmlns:svg="http://www.w3.org/2000/svg"
   xmlns:rdf="http://www.w3.org/1999/02/22-rdf-syntax-ns#"
   xmlns:cc="http://creativecommons.org/ns#"
   xmlns:dc="http://purl.org/dc/elements/1.1/">
  <sodipodi:namedview
     id="namedview25"
     pagecolor="#ffffff"
     bordercolor="#666666"
     borderopacity="1.0"
     inkscape:pageshadow="2"
     inkscape:pageopacity="0.0"
     inkscape:pagecheckerboard="0"
     showgrid="false"
     inkscape:zoom="0.36133368"
     inkscape:cx="960.33119"
     inkscape:cy="-65.036838"
     inkscape:window-width="1440"
     inkscape:window-height="831"
     inkscape:window-x="0"
     inkscape:window-y="0"
     inkscape:window-maximized="1"
     inkscape:current-layer="svg21"
     showborder="false"
     showguides="false"
     inkscape:guide-bbox="true">
    <sodipodi:guide
       position="574.6072,473.09365"
       orientation="1,0"
       id="guide44855" />
    <sodipodi:guide
       position="1398.0454,580.99022"
       orientation="1,0"
       id="guide44857" />
    <inkscape:grid
       type="xygrid"
       id="grid55595" />
  </sodipodi:namedview>
  <title
     id="title2">logo</title>
  <defs
     id="defs7">
    <path
       d="M 44.264037,343.22228 V 209.5801 H 9.3019766 v 0 c -5.154616,0 -9.33325789,-4.17864 -9.33325789,-9.33325 0,-2.45605 0.96809683,-4.8131 2.69438789,-6.56012 L 190.65888,3.4340473 v 0 c 4.52881,-4.5831833 11.91554,-4.6272581 16.49873,-0.098444 0.0263,0.026028 0.0526,0.052182 0.0786,0.078459 L 305.3928,102.27112 v -18.297371 0 c 0,-4.295514 3.4822,-7.777715 7.77772,-7.777715 h 32.65295 v 0 c 4.29552,0 7.77772,3.482201 7.77772,7.777715 v 67.138001 l 41.76152,42.60152 v 0 c 3.6084,3.68098 3.54956,9.59018 -0.13142,13.19857 -1.74468,1.71028 -4.09042,2.66826 -6.53357,2.66826 h -35.09653 v 133.64218 0 c 0,4.29552 -3.4822,7.77772 -7.77772,7.77772 H 52.041752 v 0 c -4.295513,0 -7.777715,-3.4822 -7.777715,-7.77772 z"
       id="path-1-3" />
    <mask
       id="mask-2-7"
       fill="#ffffff">
      <use
         xlink:href="#path-1-3"
         id="use1461"
         x="0"
         y="0"
         width="100%"
         height="100%" />
    </mask>
    <filter
       style="color-interpolation-filters:sRGB"
       id="filter5868"
       x="-0.070571608"
       y="-0.080021367"
       width="1.1411432"
       height="1.1600427">
      <feGaussianBlur
         stdDeviation="11.703125"
         id="feGaussianBlur5870" />
    </filter>
  </defs>
  <g
     id="fill/orange"
     fill="#f55041"
     style="fill-rule:evenodd;stroke:none;stroke-width:1">
    <rect
       id="Rectangle-2"
       x="0"
       y="0"
       width="500"
       height="500" />
  </g>
  <g
     id="g5866"
     style="opacity:0.3;fill:#000000;filter:url(#filter5868)">
    <g
       id="g5864"
       style="fill:#000000">
      <g
         id="g5862"
         style="fill:#000000">
        <g
           id="g5860"
           style="fill:#000000">
          <g
             id="g5858"
             mask="url(#mask-2-7)"
             fill-rule="evenodd"
             fill="#000000"
             style="fill:#000000;stroke:none;stroke-width:1"
             transform="translate(50.99922,74.500391)">
            <path
               id="path5856"
               style="fill:#000000"
               d="M 50.800781,70.099609 V 421.09961 H 448.80078 V 70.099609 Z M 250,187.08984 l 22.05273,31.57227 c -6.83049,-2.49204 -14.29912,-3.88086 -22.05273,-3.88086 -7.7536,0 -15.22224,1.38866 -22.05273,3.88086 z m 41.53711,42.82032 38.31641,3.34375 L 313.5,268.22656 c -1.29225,-7.29203 -3.79124,-14.38877 -7.66797,-21.12695 -3.87689,-6.64593 -8.75666,-12.4819 -14.29492,-17.18945 z m -83.07422,0.0918 c -5.53825,4.70756 -10.53733,10.45367 -14.41406,17.09961 -4.06143,6.83047 -6.34614,13.83494 -7.63867,21.12696 L 170.05664,233.25586 Z M 250,233.25586 c 25.48902,0 46.16406,20.64382 46.16406,46.13281 h 36.91211 c 5.09778,0 9.22071,4.15223 9.22071,9.25 0,5.09777 -4.12293,9.22071 -9.22071,9.22071 h -51.59375 v 8.80273 l 14.11328,7.96875 16.44336,-4.38672 3.60938,13.63672 -12.50196,3.3125 3.3125,12.50391 -13.25,3.60937 -4.38671,-16.44141 -14.11524,-7.99804 -17.66406,10.23633 v 15.96484 l 12.02539,12.05469 -9.9668,9.96679 -9.10156,-9.10156 -9.10156,9.10156 -10.02539,-9.96679 12.05468,-12.05469 v -15.96484 l -17.27734,-10.14649 -14.11523,7.9668 -4.38672,16.44336 -13.63672,-3.66992 3.3418,-12.41407 -12.50196,-3.3125 3.66992,-13.63672 16.44141,4.38672 14.11523,-7.99804 v -8.86328 h -51.65429 c -5.09777,0 -9.22071,-4.12294 -9.22071,-9.22071 0,-5.09777 4.12294,-9.25 9.22071,-9.25 h 36.91211 c 0,-25.48899 20.67493,-46.13281 46.16406,-46.13281 z m 0,18.44141 c -15.29345,0 -27.69141,12.39795 -27.69141,27.6914 h 55.38282 c 0,-15.29345 -12.39794,-27.6914 -27.69141,-27.6914 z m -17.66602,46.16211 v 8.80273 L 250,316.89844 267.63672,306.66211 v -8.80273 z"
               transform="translate(-50.8,-70.1)" />
          </g>
        </g>
      </g>
    </g>
  </g>
  <g
     id="g5854">
    <g
       id="g5847">
      <g
         id="g5841">
        <g
           id="g5836">
          <g
             id="fill/black"
             mask="url(#mask-2-7)"
             fill-rule="evenodd"
             fill="#000000"
             style="fill:#ffffff;stroke:none;stroke-width:1"
             transform="translate(50.99922,74.500391)">
            <path
               id="Rectangle-2-5"
               style="fill:#ffffff"
               d="M 50.800781,70.099609 V 421.09961 H 448.80078 V 70.099609 Z M 250,187.08984 l 22.05273,31.57227 c -6.83049,-2.49204 -14.29912,-3.88086 -22.05273,-3.88086 -7.7536,0 -15.22224,1.38866 -22.05273,3.88086 z m 41.53711,42.82032 38.31641,3.34375 L 313.5,268.22656 c -1.29225,-7.29203 -3.79124,-14.38877 -7.66797,-21.12695 -3.87689,-6.64593 -8.75666,-12.4819 -14.29492,-17.18945 z m -83.07422,0.0918 c -5.53825,4.70756 -10.53733,10.45367 -14.41406,17.09961 -4.06143,6.83047 -6.34614,13.83494 -7.63867,21.12696 L 170.05664,233.25586 Z M 250,233.25586 c 25.48902,0 46.16406,20.64382 46.16406,46.13281 h 36.91211 c 5.09778,0 9.22071,4.15223 9.22071,9.25 0,5.09777 -4.12293,9.22071 -9.22071,9.22071 h -51.59375 v 8.80273 l 14.11328,7.96875 16.44336,-4.38672 3.60938,13.63672 -12.50196,3.3125 3.3125,12.50391 -13.25,3.60937 -4.38671,-16.44141 -14.11524,-7.99804 -17.66406,10.23633 v 15.96484 l 12.02539,12.05469 -9.9668,9.96679 -9.10156,-9.10156 -9.10156,9.10156 -10.02539,-9.96679 12.05468,-12.05469 v -15.96484 l -17.27734,-10.14649 -14.11523,7.9668 -4.38672,16.44336 -13.63672,-3.66992 3.3418,-12.41407 -12.50196,-3.3125 3.66992,-13.63672 16.44141,4.38672 14.11523,-7.99804 v -8.86328 h -51.65429 c -5.09777,0 -9.22071,-4.12294 -9.22071,-9.22071 0,-5.09777 4.12294,-9.25 9.22071,-9.25 h 36.91211 c 0,-25.48899 20.67493,-46.13281 46.16406,-46.13281 z m 0,18.44141 c -15.29345,0 -27.69141,12.39795 -27.69141,27.6914 h 55.38282 c 0,-15.29345 -12.39794,-27.6914 -27.69141,-27.6914 z m -17.66602,46.16211 v 8.80273 L 250,316.89844 267.63672,306.66211 v -8.80273 z"
               transform="translate(-50.8,-70.1)" />
          </g>
        </g>
      </g>
    </g>
  </g>
  <metadata
     id="metadata926">
    <rdf:RDF>
      <cc:Work
         rdf:about="">
        <dc:title>logo</dc:title>
      </cc:Work>
    </rdf:RDF>
  </metadata>
  <text
     xml:space="preserve"
     style="font-style:normal;font-variant:normal;font-weight:normal;font-stretch:normal;font-size:240px;line-height:170.079px;font-family:'Source Sans Variable';-inkscape-font-specification:'Source Sans Variable';letter-spacing:0px;word-spacing:0px;fill:#f55041;fill-opacity:1;stroke:none;stroke-width:1.31149px;stroke-linecap:butt;stroke-linejoin:miter;stroke-opacity:1"
     x="556.24225"
     y="232.73289"
     id="text2538"><tspan
       sodipodi:role="line"
       x="556.24225"
       y="265.18811"
       style="font-style:normal;font-variant:normal;font-weight:normal;font-stretch:normal;font-size:240px;font-family:'Source Sans 3 VF';-inkscape-font-specification:'Source Sans 3 VF';fill:#f55041;fill-opacity:1;stroke-width:1.31149px"
       id="tspan18126"
       rotate="0 0 0 0 0 0 0 0">Thermal</tspan><tspan
       sodipodi:role="line"
       x="556.24225"
       y="435.26712"
       style="font-style:normal;font-variant:normal;font-weight:normal;font-stretch:normal;font-size:240px;font-family:'Source Sans 3 VF';-inkscape-font-specification:'Source Sans 3 VF';letter-spacing:2px;fill:#f55041;fill-opacity:1;stroke-width:1.31149px"
       id="tspan27274"
       rotate="0 0 0 0 0 0 0 0"
       dx="-5.2035093">Comfort</tspan></text>
</svg>
