<?xml version="1.0" encoding="UTF-8" standalone="no"?>
<svg
   width="1450"
   height="500"
   viewBox="0 0 1450 500"
   version="1.1"
   id="svg21"
   sodipodi:docname="logo.svg"
   inkscape:version="1.1.1 (3bf5ae0d25, 2021-09-20, custom)"
   xmlns:inkscape="http://www.inkscape.org/namespaces/inkscape"
   xmlns:sodipodi="http://sodipodi.sourceforge.net/DTD/sodipodi-0.dtd"
   xmlns:xlink="http://www.w3.org/1999/xlink"
   xmlns="http://www.w3.org/2000/svg"
   xmlns:svg="http://www.w3.org/2000/svg"
   xmlns:rdf="http://www.w3.org/1999/02/22-rdf-syntax-ns#"
   xmlns:cc="http://creativecommons.org/ns#"
   xmlns:dc="http://purl.org/dc/elements/1.1/">
  <sodipodi:namedview
     id="namedview25"
     pagecolor="#ffffff"
     bordercolor="#666666"
     borderopacity="1.0"
     inkscape:pageshadow="2"
     inkscape:pageopacity="0.0"
     inkscape:pagecheckerboard="0"
     showgrid="false"
     inkscape:zoom="0.077865087"
     inkscape:cx="539.3945"
     inkscape:cy="-199.06226"
     inkscape:window-width="1440"
     inkscape:window-height="831"
     inkscape:window-x="0"
     inkscape:window-y="0"
     inkscape:window-maximized="1"
     inkscape:current-layer="svg21"
     showborder="true"
     showguides="false"
     inkscape:guide-bbox="true">
    <sodipodi:guide
       position="574.6072,473.09365"
       orientation="1,0"
       id="guide44855" />
    <sodipodi:guide
       position="1398.0454,580.99022"
       orientation="1,0"
       id="guide44857" />
    <inkscape:grid
       type="xygrid"
       id="grid55595" />
    <sodipodi:guide
       position="702.19475,244.05986"
       orientation="0,-1"
       id="guide18568" />
  </sodipodi:namedview>
  <title
     id="title2">logo</title>
  <defs
     id="defs7">
    <path
       d="M 44.264037,343.22228 V 209.5801 H 9.3019766 v 0 c -5.154616,0 -9.33325789,-4.17864 -9.33325789,-9.33325 0,-2.45605 0.96809683,-4.8131 2.69438789,-6.56012 L 190.65888,3.4340473 v 0 c 4.52881,-4.5831833 11.91554,-4.6272581 16.49873,-0.098444 0.0263,0.026028 0.0526,0.052182 0.0786,0.078459 L 305.3928,102.27112 v -18.297371 0 c 0,-4.295514 3.4822,-7.777715 7.77772,-7.777715 h 32.65295 v 0 c 4.29552,0 7.77772,3.482201 7.77772,7.777715 v 67.138001 l 41.76152,42.60152 v 0 c 3.6084,3.68098 3.54956,9.59018 -0.13142,13.19857 -1.74468,1.71028 -4.09042,2.66826 -6.53357,2.66826 h -35.09653 v 133.64218 0 c 0,4.29552 -3.4822,7.77772 -7.77772,7.77772 H 52.041752 v 0 c -4.295513,0 -7.777715,-3.4822 -7.777715,-7.77772 z"
       id="path-1-3" />
    <mask
       id="mask-2-7"
       fill="#ffffff">
      <use
         xlink:href="#path-1-3"
         id="use1461"
         x="0"
         y="0"
         width="100%"
         height="100%" />
    </mask>
    <filter
       style="color-interpolation-filters:sRGB"
       id="filter5868"
       x="-0.070571609"
       y="-0.080021366"
       width="1.1411432"
       height="1.1600426">
      <feGaussianBlur
         stdDeviation="11.703125"
         id="feGaussianBlur5870" />
    </filter>
  </defs>
  <metadata
     id="metadata926">
    <rdf:RDF>
      <cc:Work
         rdf:about="">
        <dc:title>logo</dc:title>
      </cc:Work>
    </rdf:RDF>
  </metadata>
  <text
     xml:space="preserve"
     style="font-style:normal;font-variant:normal;font-weight:normal;font-stretch:normal;font-size:240px;line-height:170.079px;font-family:'Source Sans Variable';-inkscape-font-specification:'Source Sans Variable';letter-spacing:0px;word-spacing:0px;fill:#f55041;fill-opacity:1;stroke:none;stroke-width:1.31149px;stroke-linecap:butt;stroke-linejoin:miter;stroke-opacity:1"
     x="556.24225"
     y="232.73289"
     id="text2538"><tspan
       sodipodi:role="line"
       x="556.24225"
       y="265.18811"
       style="font-style:normal;font-variant:normal;font-weight:normal;font-stretch:normal;font-size:240px;font-family:'Source Sans 3 VF';-inkscape-font-specification:'Source Sans 3 VF';fill:#f55041;fill-opacity:1;stroke-width:1.31149px"
       id="tspan18126"
       rotate="0 0 0 0 0 0 0 0">Thermal</tspan><tspan
       sodipodi:role="line"
       x="556.24225"
       y="435.26712"
       style="font-style:normal;font-variant:normal;font-weight:normal;font-stretch:normal;font-size:240px;font-family:'Source Sans 3 VF';-inkscape-font-specification:'Source Sans 3 VF';letter-spacing:2px;fill:#f55041;fill-opacity:1;stroke-width:1.31149px"
       id="tspan27274"
       rotate="0 0 0 0 0 0 0 0"
       dx="-5.2035093">Comfort</tspan></text>
  <path
     id="Rectangle-2"
     style="fill:#f55041;fill-rule:evenodd;stroke:none;stroke-width:1"
     d="M 0,0 V 500 H 500 V 0 Z m 249.86133,153.32227 22.22656,31.80664 c -6.88222,-2.51108 -14.41433,-3.90625 -22.22656,-3.90625 -7.81225,0 -15.34434,1.39517 -22.22656,3.90625 z m 41.85156,43.15234 38.5957,3.34961 -16.46093,35.24805 c -1.30204,-7.34722 -3.81264,-14.50768 -7.71875,-21.29688 -3.90613,-6.69622 -8.83585,-12.55764 -14.41602,-17.30078 z m -83.70312,0.0937 c -5.58018,4.74315 -10.60169,10.51081 -14.50782,17.20703 -4.09212,6.8822 -6.41671,13.94966 -7.71875,21.29688 l -16.46289,-35.24805 z m 41.85156,3.25586 c 25.68203,0 46.50195,20.81796 46.50195,46.5 h 37.20117 c 5.1364,0 9.29883,4.16437 9.29883,9.30078 0,5.1364 -4.16243,9.30078 -9.29883,9.30078 h -51.98242 v 8.86524 l 14.22461,8.04492 16.57227,-4.41797 3.62695,13.73828 -12.58594,3.33398 3.33203,12.58594 -13.36328,3.63867 -4.41601,-16.57226 -14.22461,-8.04297 -17.78125,10.30664 v 16.08789 l 12.09961,12.1543 -10.03125,10.02929 -9.18164,-9.16796 -9.16797,9.16796 -10.09766,-10.02929 12.1543,-12.1543 V 296.4062 l -17.41992,-10.23633 -14.22461,8.04297 -4.4043,16.57227 -13.73828,-3.70899 3.34765,-12.51562 -12.58593,-3.33399 3.69531,-13.72656 16.57227,4.4043 14.2246,-8.04297 v -8.93555 H 166.1582 c -5.13641,0 -9.29882,-4.16438 -9.29882,-9.30078 0,-5.13641 4.16241,-9.29883 9.29882,-9.29883 h 37.20118 c -10e-6,-25.68204 20.81991,-46.50195 46.50195,-46.50195 z m 0,18.59961 c -15.40922,0 -27.90039,12.49311 -27.90039,27.90234 h 55.80273 c 0,-15.40923 -12.49313,-27.90234 -27.90234,-27.90234 z m -17.78711,46.50195 v 8.86524 l 17.7793,10.32226 17.78125,-10.32226 v -8.86524 z" />
</svg>
